<svg xmlns="http://www.w3.org/2000/svg" xmlns:xlink="http://www.w3.org/1999/xlink" width="500" zoomAndPan="magnify" viewBox="0 0 375 374.999991" height="500" preserveAspectRatio="xMidYMid meet" version="1.0"><defs><clipPath id="b871304fe4"><path d="M 14.113281 40.394531 L 268.363281 40.394531 L 268.363281 334.394531 L 14.113281 334.394531 Z M 14.113281 40.394531 " clip-rule="nonzero"/></clipPath><clipPath id="82b00f5320"><path d="M 66.675781 43 L 360.675781 43 L 360.675781 331.71875 L 66.675781 331.71875 Z M 66.675781 43 " clip-rule="nonzero"/></clipPath></defs><g clip-path="url(#b871304fe4)"><path fill="#000000" d="M 127.621094 40.394531 L 20.824219 40.394531 C 17.125 40.394531 14.136719 43.390625 14.136719 47.078125 L 14.136719 327.714844 C 14.136719 331.402344 17.125 334.394531 20.824219 334.394531 L 127.621094 334.394531 C 217.054688 334.394531 268.34375 280.351562 268.34375 186.132812 C 268.34375 94.871094 215.738281 40.394531 127.621094 40.394531 Z M 122 287.625 L 74.34375 287.625 L 74.34375 87.167969 L 122 87.167969 C 176.171875 87.167969 208.136719 123.558594 208.136719 186.894531 C 208.136719 251.636719 176.9375 287.625 122 287.625 Z M 122 287.625 " fill-opacity="1" fill-rule="nonzero"/></g><g clip-path="url(#82b00f5320)"><path fill="#ffde59" d="M 266.527344 176.113281 C 277.96875 167.722656 285.59375 157.339844 289.46875 144.957031 L 289.703125 144.136719 C 294.164062 129.820312 292.988281 118.964844 286.125 111.511719 C 279.257812 104.0625 267.816406 100.363281 251.855469 100.363281 L 139.257812 100.363281 C 203.390625 87.574219 153.046875 43.039062 201.691406 43.039062 L 275.210938 43.039062 C 292.519531 43.039062 307.246094 45.445312 319.394531 50.253906 C 331.480469 55.066406 340.925781 61.875 347.675781 70.675781 C 354.421875 79.476562 358.410156 89.980469 359.644531 102.242188 C 360.875 114.503906 359.175781 128.058594 354.539062 142.902344 L 354.304688 143.726562 C 349.082031 160.507812 337.875 185.269531 327.902344 197.941406 C 240.355469 308.546875 133.566406 188.027344 66.675781 331.957031 C 114.910156 125.769531 186.84375 234.671875 266.527344 176.113281 Z M 266.527344 176.113281 " fill-opacity="1" fill-rule="nonzero"/></g></svg>