<svg xmlns="http://www.w3.org/2000/svg" xmlns:xlink="http://www.w3.org/1999/xlink" width="500" zoomAndPan="magnify" viewBox="0 0 375 374.999991" height="500" preserveAspectRatio="xMidYMid meet" version="1.0"><defs><clipPath id="9c5dcaac9a"><path d="M 14.113281 40.394531 L 268.363281 40.394531 L 268.363281 334.394531 L 14.113281 334.394531 Z M 14.113281 40.394531 " clip-rule="nonzero"/></clipPath><clipPath id="a969a158c5"><path d="M 66.675781 43 L 360.675781 43 L 360.675781 331.71875 L 66.675781 331.71875 Z M 66.675781 43 " clip-rule="nonzero"/></clipPath></defs><g clip-path="url(#9c5dcaac9a)"><path fill="#ffffff" d="M 127.5625 40.394531 L 20.820312 40.394531 C 17.125 40.394531 14.136719 43.390625 14.136719 47.082031 L 14.136719 327.910156 C 14.136719 331.601562 17.125 334.59375 20.820312 334.59375 L 127.5625 334.59375 C 216.953125 334.59375 268.214844 280.515625 268.214844 186.230469 C 268.214844 94.910156 215.632812 40.394531 127.5625 40.394531 Z M 121.945312 287.789062 L 74.3125 287.789062 L 74.3125 87.199219 L 121.945312 87.199219 C 176.089844 87.199219 208.039062 123.613281 208.039062 186.996094 C 208.039062 251.777344 176.855469 287.789062 121.945312 287.789062 Z M 121.945312 287.789062 " fill-opacity="1" fill-rule="nonzero"/></g><g clip-path="url(#a969a158c5)"><path fill="#ffde59" d="M 266.527344 176.113281 C 277.96875 167.722656 285.59375 157.339844 289.46875 144.957031 L 289.703125 144.136719 C 294.164062 129.820312 292.988281 118.964844 286.125 111.511719 C 279.257812 104.0625 267.816406 100.363281 251.855469 100.363281 L 139.257812 100.363281 C 203.390625 87.574219 153.046875 43.039062 201.691406 43.039062 L 275.210938 43.039062 C 292.519531 43.039062 307.246094 45.445312 319.394531 50.253906 C 331.480469 55.066406 340.925781 61.875 347.675781 70.675781 C 354.421875 79.476562 358.410156 89.980469 359.644531 102.242188 C 360.875 114.503906 359.175781 128.058594 354.539062 142.902344 L 354.304688 143.726562 C 349.082031 160.507812 337.875 185.269531 327.902344 197.941406 C 240.355469 308.546875 133.566406 188.027344 66.675781 331.957031 C 114.910156 125.769531 186.84375 234.671875 266.527344 176.113281 Z M 266.527344 176.113281 " fill-opacity="1" fill-rule="nonzero"/></g></svg>